<?xml version="1.0" encoding="UTF-8" standalone="no"?><svg xmlns="http://www.w3.org/2000/svg" xmlns:xlink="http://www.w3.org/1999/xlink" fill="#1f2a47" height="110.6" preserveAspectRatio="xMidYMid meet" version="1" viewBox="301.0 269.2 67.5 110.6" width="67.5" zoomAndPan="magnify"><g id="change1_1"><path d="M 365.351562 359.6875 L 364.375 358.710938 C 364.296875 358.640625 364.207031 358.59375 364.128906 358.527344 L 330.058594 324.460938 L 363.695312 290.824219 C 363.714844 290.8125 365.253906 289.460938 365.867188 288.671875 C 365.882812 288.652344 365.894531 288.632812 365.90625 288.609375 C 367.472656 286.578125 368.417969 284.039062 368.417969 281.273438 C 368.417969 278.191406 367.253906 275.390625 365.351562 273.257812 L 364.375 272.277344 C 362.242188 270.378906 359.4375 269.210938 356.355469 269.210938 C 353.1875 269.210938 350.308594 270.445312 348.15625 272.445312 L 348.015625 272.585938 C 348.011719 272.578125 348.011719 272.574219 348.007812 272.570312 C 348.007812 272.570312 303.714844 316.800781 303.492188 317.085938 C 301.910156 319.125 300.960938 321.679688 300.960938 324.460938 C 300.960938 327.238281 301.910156 329.789062 303.492188 331.828125 C 304.117188 332.640625 347.148438 375.484375 347.148438 375.484375 L 348.574219 376.910156 C 350.675781 378.6875 353.386719 379.765625 356.355469 379.765625 C 359.148438 379.765625 361.710938 378.808594 363.753906 377.214844 C 364.542969 376.601562 365.253906 375.890625 365.867188 375.101562 C 367.460938 373.058594 368.417969 370.496094 368.417969 367.703125 C 368.417969 364.730469 367.316406 362.035156 365.535156 359.933594 C 365.46875 359.855469 365.417969 359.765625 365.351562 359.6875" fill="inherit"/></g></svg>