<?xml version="1.0" encoding="UTF-8" standalone="no"?><svg xmlns="http://www.w3.org/2000/svg" xmlns:xlink="http://www.w3.org/1999/xlink" fill="#000000" height="150.7" preserveAspectRatio="xMidYMid meet" version="1" viewBox="0.0 0.0 150.0 150.7" width="150" zoomAndPan="magnify"><g id="change1_1"><path clip-rule="evenodd" d="M75,8.9C38.6,8.9,9.2,38.3,9.2,74.7c0,12.8,3.7,24.7,10,34.8 l-7.3,28.8l30.2-6.7c9.7,5.6,20.9,8.8,32.9,8.8c36.4,0,65.8-29.5,65.8-65.8C140.8,38.3,111.4,8.9,75,8.9z" fill="#d9d9d9" fill-rule="evenodd"/></g><g><g><g id="change2_1"><path clip-rule="evenodd" d="M128.1,21.9C114,7.8,95.3,0,75.3,0C34.1,0,0.6,33.5,0.6,74.7 c0,13.2,3.4,26,10,37.3L0,150.7l39.6-10.4c10.9,6,23.2,9.1,35.7,9.1h0c0,0,0,0,0,0c41.2,0,74.7-33.5,74.7-74.7 C150,54.8,142.2,36,128.1,21.9z M75.3,136.8L75.3,136.8c-11.2,0-22.1-3-31.6-8.7l-2.3-1.3L17.9,133l6.3-22.9l-1.5-2.3 c-6.2-9.9-9.5-21.3-9.5-33c0-34.2,27.9-62.1,62.1-62.1c16.6,0,32.2,6.5,43.9,18.2c11.7,11.7,18.2,27.3,18.2,43.9 C137.4,108.9,109.5,136.8,75.3,136.8z M109.4,90.3c-1.9-0.9-11-5.4-12.8-6.1c-1.7-0.6-3-0.9-4.2,0.9c-1.2,1.9-4.8,6.1-5.9,7.3 c-1.1,1.2-2.2,1.4-4,0.5c-1.9-0.9-7.9-2.9-15-9.3c-5.5-4.9-9.3-11.1-10.4-12.9c-1.1-1.9-0.1-2.9,0.8-3.8c0.8-0.8,1.9-2.2,2.8-3.3 c0.9-1.1,1.2-1.9,1.9-3.1c0.6-1.2,0.3-2.3-0.2-3.3c-0.5-0.9-4.2-10.1-5.8-13.9c-1.5-3.6-3.1-3.1-4.2-3.2c-1.1-0.1-2.3-0.1-3.6-0.1 c-1.2,0-3.3,0.5-5,2.3c-1.7,1.9-6.5,6.4-6.5,15.6c0,9.2,6.7,18.1,7.6,19.3c0.9,1.2,13.2,20.1,31.9,28.2c4.5,1.9,7.9,3.1,10.6,3.9 c4.5,1.4,8.5,1.2,11.8,0.7c3.6-0.5,11-4.5,12.6-8.9c1.6-4.4,1.6-8.1,1.1-8.9C112.5,91.7,111.2,91.2,109.4,90.3z" fill="#ffffff" fill-rule="evenodd"/></g></g></g></svg>